<?xml version="1.0" ?><!DOCTYPE svg  PUBLIC '-//W3C//DTD SVG 1.1//EN'  'http://www.w3.org/Graphics/SVG/1.1/DTD/svg11.dtd'><svg viewBox="0 0 512 512" xmlns="http://www.w3.org/2000/svg" xmlns:xlink="http://www.w3.org/1999/xlink"><style>:root>svg{display:none}:root>svg:target{display:block}</style><svg viewBox="0 0 512 512" id="close"><path d="M443.6 387.1L312.4 255.4l131.5-130c5.4-5.4 5.4-14.2 0-19.6l-37.4-37.6c-2.6-2.6-6.1-4-9.8-4-3.7 0-7.2 1.5-9.8 4L256 197.8 124.9 68.3c-2.6-2.6-6.1-4-9.8-4-3.7 0-7.2 1.5-9.8 4L68 105.9c-5.4 5.4-5.4 14.2 0 19.6l131.5 130L68.4 387.1c-2.6 2.6-4.1 6.1-4.1 9.8 0 3.7 1.4 7.2 4.1 9.8l37.4 37.6c2.7 2.7 6.2 4.1 9.8 4.1 3.5 0 7.1-1.3 9.8-4.1L256 313.1l130.7 131.1c2.7 2.7 6.2 4.1 9.8 4.1 3.5 0 7.1-1.3 9.8-4.1l37.4-37.6c2.6-2.6 4.1-6.1 4.1-9.8-.1-3.6-1.6-7.1-4.2-9.7z"/></svg><svg viewBox="0 0 20 20" id="search"><path d="M19.724 18.263l-3.702-3.697c2.832-3.524 2.559-8.735-.67-11.936A8.949 8.949 0 008.992 0c-2.41 0-4.645.943-6.359 2.63A8.93 8.93 0 000 8.983c0 2.407.944 4.64 2.633 6.352a8.949 8.949 0 006.36 2.63 9.034 9.034 0 005.613-1.96l3.702 3.697a.982.982 0 00.695.298c.273 0 .522-.1.696-.298.397-.422.397-1.042.025-1.439zm-3.726-9.305a6.94 6.94 0 01-2.037 4.938 6.955 6.955 0 01-4.944 2.034 6.956 6.956 0 01-4.943-2.034 6.94 6.94 0 01-2.037-4.938A6.94 6.94 0 014.074 4.02a6.956 6.956 0 014.943-2.035c1.863 0 3.627.72 4.944 2.035a6.94 6.94 0 012.037 4.938z"/></svg></svg>